<svg width="24" height="18" viewBox="0 0 24 18" fill="none" xmlns="http://www.w3.org/2000/svg">
<path d="M11.9435 11.7513C15.6606 11.7513 18.8345 12.3406 18.8345 14.6988C18.8345 17.0559 15.681 17.6667 11.9435 17.6667C8.22636 17.6667 5.05246 17.0774 5.05246 14.7202C5.05246 12.3621 8.20599 11.7513 11.9435 11.7513ZM17.8867 10.3313C19.3078 10.305 20.8356 10.5001 21.4001 10.6387C22.5961 10.8738 23.3828 11.3538 23.7087 12.0514C23.9842 12.6241 23.9842 13.2885 23.7087 13.8603C23.2102 14.9423 21.6028 15.2896 20.9781 15.3794C20.8491 15.3989 20.7453 15.2867 20.7589 15.1569C21.0781 12.1587 18.5395 10.7372 17.8828 10.4104C17.8547 10.3957 17.8489 10.3733 17.8518 10.3596C17.8537 10.3499 17.8654 10.3343 17.8867 10.3313ZM5.84383 10.3293L6.11143 10.3317C6.13277 10.3346 6.14344 10.3503 6.14538 10.359C6.14829 10.3737 6.14247 10.3951 6.11531 10.4107C5.45764 10.7376 2.9191 12.1591 3.23823 15.1563C3.25181 15.2871 3.14899 15.3983 3.01998 15.3798C2.39529 15.29 0.787963 14.9427 0.289373 13.8607C0.0129174 13.288 0.0129174 12.6245 0.289373 12.0518C0.615299 11.3542 1.40102 10.8742 2.59705 10.6381C3.16257 10.5005 4.68938 10.3054 6.11143 10.3317L5.84383 10.3293ZM11.9435 0.333374C14.4743 0.333374 16.5035 2.3725 16.5035 4.91896C16.5035 7.46445 14.4743 9.50553 11.9435 9.50553C9.4127 9.50553 7.38342 7.46445 7.38342 4.91896C7.38342 2.3725 9.4127 0.333374 11.9435 0.333374ZM18.134 1.09809C20.5785 1.09809 22.4982 3.41138 21.8444 5.98809C21.403 7.72281 19.8054 8.87506 18.0254 8.82823C17.8469 8.82335 17.6713 8.80676 17.5016 8.77749C17.3784 8.75603 17.3163 8.61651 17.3862 8.51309C18.0652 7.50816 18.4522 6.29932 18.4522 5.0017C18.4522 3.64749 18.0293 2.38499 17.295 1.34981C17.2717 1.31762 17.2542 1.26786 17.2775 1.23078C17.2969 1.20054 17.3328 1.18493 17.3668 1.17712C17.6141 1.12639 17.8683 1.09809 18.134 1.09809ZM5.86262 1.098C6.12841 1.098 6.38255 1.12629 6.63088 1.17702C6.66386 1.18483 6.70072 1.20142 6.72012 1.23069C6.74243 1.26776 6.72594 1.31752 6.70266 1.34972C5.96835 2.38489 5.54542 3.64739 5.54542 5.0016C5.54542 6.29923 5.93246 7.50806 6.61148 8.51299C6.68132 8.61641 6.61924 8.75593 6.49604 8.7774C6.32532 8.80764 6.15072 8.82325 5.97223 8.82813C4.19225 8.87496 2.59462 7.72271 2.15327 5.98799C1.4985 3.41128 3.41817 1.098 5.86262 1.098Z" fill="white"/>
</svg>
