<svg width="580" height="603" viewBox="0 0 580 603" fill="none" xmlns="http://www.w3.org/2000/svg">
<path d="M264.755 151.248L103.91 182.211C86.9856 185.469 75.806 202.374 78.9397 219.97L129.329 502.902C132.463 520.498 148.723 532.121 165.647 528.863L326.493 497.9C343.417 494.642 354.597 477.737 351.463 460.141L301.074 177.209C297.94 159.613 281.68 147.99 264.755 151.248Z" fill="#D0D0D0"/>
<path d="M231.924 157.566L73.2695 188.107L135.007 534.758L293.661 504.217L231.924 157.566Z" fill="#D0D0D0"/>
<path d="M259.745 136.251L79.2964 185.398C62.6461 189.933 52.6845 207.642 57.0464 224.953L127.185 503.301C131.546 520.612 148.58 530.968 165.23 526.434L345.679 477.287C362.329 472.752 372.291 455.042 367.929 437.732L297.791 159.383C293.429 142.073 276.395 131.716 259.745 136.251Z" fill="#DEDEDE"/>
<path d="M221.088 146.78L49.1445 193.611L135.079 534.646L307.022 487.816L221.088 146.78Z" fill="#DEDEDE"/>
<path d="M250.012 140.394L227.039 146.549L311.813 488.517L334.786 482.361L250.012 140.394Z" fill="#F3F3F3"/>
<path d="M279.43 176.862L84.9219 229.838L107.582 319.766L302.09 266.79L279.43 176.862Z" fill="#F3F3F3"/>
<path d="M279.43 176.862L84.9219 229.838L107.582 319.766L302.09 266.79L279.43 176.862Z" fill="#F3F3F3"/>
<path d="M210.127 444.558L135.57 464.865L147.531 512.332L222.088 492.026L210.127 444.558Z" fill="#F3F3F3"/>
<path d="M435.483 257.627C437.271 258.471 441.5 261.848 443.124 263.792C444.995 262.863 477.016 242.079 481.651 242.331C486.286 242.582 483.845 252.129 483.845 253.059C483.845 253.989 445.222 285.254 438.929 285.254C432.636 285.254 424.27 271.059 424.27 270.214C424.27 269.37 435.483 257.627 435.483 257.627Z" fill="#DE8E68"/>
<path d="M500.974 175.513L496.218 174.81L486.551 173.388L485.184 183.438L444.584 481.722L442.061 500.254C441.699 502.916 442.369 505.618 443.924 507.766C445.478 509.915 447.79 511.334 450.35 511.711L455.111 512.414C457.672 512.79 460.271 512.092 462.338 510.475C464.405 508.858 465.769 506.454 466.131 503.792L468.654 485.264L509.254 186.98L510.621 176.93L500.974 175.513Z" fill="#DFDFDF"/>
<path d="M503.093 142.137L486.562 173.388L510.632 176.93L503.093 142.137Z" fill="#F3F3F3"/>
<path d="M505.576 153.604L503.092 142.137L497.645 152.433L505.576 153.604Z" fill="#DFDFDF"/>
<path d="M469.029 482.272L444.957 478.728L443.733 487.714L467.805 491.257L469.029 482.272Z" fill="#F3F3F3"/>
<path d="M417.739 500.058H406.023V507.399H417.739V500.058Z" fill="#DE8E68"/>
<path d="M440.207 473.572L433.848 482.57L439.538 486.917L445.898 477.92L440.207 473.572Z" fill="#DE8E68"/>
<path d="M361.629 344.213C361.629 344.213 353.968 415.668 356.646 423.668C359.324 431.668 434.946 483.847 434.946 483.847L441.974 474.109L384.761 412.879C387.599 410.618 398.74 382.272 399.025 379.835C399.31 377.398 390.774 339.635 390.774 339.635L361.629 344.213Z" fill="#019B83"/>
<path d="M408.276 242.788C414.376 232.999 438.243 253.29 438.881 257.541C439.519 261.793 429.755 278.531 422.085 278.109C414.414 277.687 404.724 248.486 408.276 242.788Z" fill="#FCC486"/>
<path d="M391.787 227.527C438.303 227.527 425.784 326.761 425.074 334.745C421.516 341.102 365.034 348.082 361.631 344.212C360.21 333.117 347.832 227.527 391.787 227.527Z" fill="#FED385"/>
<path d="M387.48 232.406C387.48 235.21 402.415 235.808 402.415 232.406V213.336H387.48V232.406Z" fill="#DE8E68"/>
<path d="M404.341 221.593C411.213 218.751 413.805 208.663 410.131 199.062C406.457 189.461 397.908 183.982 391.036 186.824C384.164 189.666 381.572 199.754 385.246 209.355C388.92 218.956 397.469 224.435 404.341 221.593Z" fill="#DE8E68"/>
<path d="M387.77 215.456C389.116 214.454 389.088 212.018 387.708 210.014C386.327 208.011 384.118 207.199 382.772 208.201C381.427 209.202 381.455 211.639 382.835 213.642C384.215 215.646 386.425 216.458 387.77 215.456Z" fill="#DE8E68"/>
<path d="M372.711 202.884C372.711 200.291 375.036 197.442 375.476 194.186C375.703 192.538 375.21 185.674 377.061 183.352C380.928 178.543 383.18 179.528 386.123 178.408C391.252 176.458 393.214 173.227 397.448 173.227C402.281 173.227 404.215 175.82 407.641 175.82C411.576 175.82 414.804 173.935 420.329 173.935C423.272 173.935 427.12 177.955 427.12 181.473C427.12 189.824 419.647 188.628 419.647 190.659C419.647 192.071 420.102 193.171 420.102 195.136C420.102 197.648 416.931 199.156 415.119 199.156C409.599 199.156 408.864 198.457 408.864 198.457C407.77 196.18 406.371 194.075 404.708 192.206C404.485 191.965 400.899 194.598 395.041 194.804C390.241 194.97 386.858 195.935 386.858 198.256C386.858 199.9 387.438 204.789 387.404 206.146C387.37 207.502 386.921 208.407 386.607 208.407C386.293 208.407 386.123 207.965 384.301 207.965C382.324 207.965 382.17 210.477 381.831 210.477C379.85 210.462 372.711 208.789 372.711 202.884Z" fill="#FD8369"/>
<path d="M372.084 274.204C371.47 274.204 370.861 274.327 370.291 274.566C370.235 274.487 370.162 274.422 370.079 274.376C369.995 274.33 369.902 274.304 369.808 274.3C368.227 274.3 353.254 273.722 351.673 274.008C354.278 271.692 359.764 265.692 359.764 265.692L347.391 250.315C344.602 251.381 324.418 272.561 324.418 280.295C324.418 287.455 333.161 288.515 339.488 288.515C347.323 288.515 359.522 286.465 366.072 284.495C366.71 288.194 369.16 290.953 372.089 290.953C375.506 290.953 378.276 287.209 378.276 282.591C378.276 277.973 375.501 274.204 372.084 274.204Z" fill="#DE8E68"/>
<path d="M376.579 238.26C384.313 247.175 363.085 271.802 359.247 271.802C355.409 271.802 342.05 257.345 343.505 248.366C344.96 239.386 372.06 233.064 376.579 238.26Z" fill="#FED892"/>
<path d="M425.072 334.745L418.769 501.661H405.386L384.762 344.343" fill="#3EA590"/>
<path d="M418.184 505.55V516.45H387.449V512.867L404.917 505.55H418.184Z" fill="black"/>
<path d="M444.989 476.913L452.206 481.44L444.279 512.314L440.949 511.389L438.039 486.782L444.989 476.913Z" fill="black"/>
</svg>
