<svg width="749" height="618" viewBox="0 0 749 618" fill="none" xmlns="http://www.w3.org/2000/svg">
<path d="M531.349 48.7859C608.766 67.3932 672.431 148.907 671.444 229.277C670.476 309.472 604.847 388.524 549.929 464.6C495.167 540.687 451.426 613.846 396.064 617.723C340.634 621.541 273.669 555.999 218.258 512.524C162.673 469.058 118.768 447.641 80.9498 409.438C43.1319 371.235 11.5557 316.227 18.9489 266.976C26.3422 217.725 72.7243 174.259 121.235 150.544C169.911 126.665 220.551 122.546 291.552 98.3375C362.552 74.1287 453.855 30.043 531.349 48.7859Z" fill="#F2F2F2"/>
<path d="M492.164 420.738L390.952 220.622C387.865 218.82 375.469 210.844 375.469 210.844" stroke="#DFDFDF" stroke-width="5" stroke-linecap="round" stroke-linejoin="round"/>
<path d="M383.695 236.467C382.485 232.465 378.856 224.218 378.856 224.218C376.64 224.082 361.215 216.135 361.215 216.135" stroke="#DFDFDF" stroke-width="5" stroke-linecap="round" stroke-linejoin="round"/>
<path d="M356.805 216.872L404.764 197.276" stroke="#DFDFDF" stroke-width="5" stroke-linecap="round" stroke-linejoin="round"/>
<path d="M12.3286 522.554L0 533.961L29.5925 572.823L38.747 564.711L24.6572 530.133L12.3286 522.554Z" fill="black"/>
<path d="M251.284 487.084L241.094 505.885L266.39 545.329L277.044 542.576L270.057 491.096L251.284 487.084Z" fill="black"/>
<path d="M366.604 220.622C374.92 220.622 381.662 215.585 381.662 209.371C381.662 203.157 374.92 198.119 366.604 198.119C358.288 198.119 351.547 203.157 351.547 209.371C351.547 215.585 358.288 220.622 366.604 220.622Z" fill="#D37C59"/>
<path d="M165.66 221.252C158.886 230.943 10.0234 523.698 10.0234 523.698L26.8615 533.99L223.306 321.092L165.66 221.252Z" fill="#00927B"/>
<path d="M293.912 150.215C297.783 153.529 309.124 166.419 312.831 168.764C316.537 171.109 359.048 197.664 367.022 200.009C374.996 202.354 358.052 209.332 358.052 209.332C358.052 209.332 302.67 197.034 298.576 194.301C294.483 191.568 270.223 172.011 270.223 166.768C270.223 161.525 293.912 150.215 293.912 150.215Z" fill="#D37C59"/>
<path d="M261.466 125.018C273.824 111.595 297.959 143.431 297.436 148.112C296.913 152.793 279.843 172.427 269.024 172.427C265.782 172.427 252.786 134.447 261.466 125.018Z" fill="#FCC486"/>
<path d="M163.745 224.198C160.842 228.075 148.262 259.087 148.262 269.747C148.262 342.432 256.471 361.291 272.012 361.291C269.767 371.438 245.961 486.687 247.084 489.216C248.206 491.746 267.957 496.911 272.012 496.242C287.495 487.801 337.477 370.256 333.723 353.538C328.449 330.114 245.661 261.607 233.7 254.784C221.74 247.961 163.745 224.198 163.745 224.198Z" fill="#019B83"/>
<path d="M235.229 94.9746C318.519 94.9746 253.992 251.76 239.341 260.26C229.664 265.861 169.666 244.56 163.241 223.19C161.044 215.893 189.204 94.9746 235.229 94.9746Z" fill="#FED385"/>
<path d="M353.929 225.923C362.245 225.923 368.986 220.886 368.986 214.672C368.986 208.458 362.245 203.42 353.929 203.42C345.613 203.42 338.871 208.458 338.871 214.672C338.871 220.886 345.613 225.923 353.929 225.923Z" fill="#DE8E68"/>
<path d="M208.645 167.369C208.848 175.277 211.49 211.571 214.77 212.666C254.446 225.923 323.153 220.08 335.017 219.285C346.881 218.49 354.488 210.127 353.897 208.14C353.307 206.153 315.992 190.918 251.214 189.126C250.014 181.799 252.888 159.654 249.927 157.677C246.966 155.7 208.645 167.369 208.645 167.369Z" fill="#DE8E68"/>
<path d="M219.671 101.691C254.131 94.6355 260.315 159.063 257.005 163.812C253.696 168.561 209.791 175.277 204.062 171.129C198.333 166.981 193.543 107.031 219.671 101.691Z" fill="#FED892"/>
<path d="M243.117 54.9109C241.53 60.9776 230.702 95.7112 231.369 97.5526C232.037 99.3939 246.94 107.515 252.659 106.624C252.882 103.978 255.311 89.8092 260.285 81.2906C265.259 72.7719 243.117 54.9109 243.117 54.9109Z" fill="#D37C59"/>
<path d="M287.242 55.0847C289.106 36.6077 280.678 20.6238 268.419 19.3837C256.16 18.1435 244.711 32.1168 242.847 50.5938C240.983 69.0708 249.411 85.0547 261.67 86.2948C273.93 87.535 285.378 73.5617 287.242 55.0847Z" fill="#DE8E68"/>
<path d="M240.708 54.9108C238.173 53.5153 233.363 45.2971 233.363 37.6604C233.363 25.711 245.256 18.9077 253.279 15.3704C259.346 12.6471 264.504 0 278.323 0C289.345 0 290.081 11.1159 295.151 11.5423C308.293 12.6374 315.667 13.1317 315.667 22.697C315.667 29.7232 306.667 48.8635 288.31 48.8635C288.31 45.3165 287.119 36.5071 285.155 32.272C274.123 32.8244 265.143 47.0221 249.843 46.964C246.563 46.9058 240.708 54.9108 240.708 54.9108Z" fill="#FD8369"/>
<path d="M246.485 60.8612C250.237 60.8612 253.278 57.1428 253.278 52.5558C253.278 47.9688 250.237 44.2504 246.485 44.2504C242.733 44.2504 239.691 47.9688 239.691 52.5558C239.691 57.1428 242.733 60.8612 246.485 60.8612Z" fill="#DE8E68"/>
<path d="M735.573 496.252H419.404V427.55C436.697 426.019 682.513 402.76 682.513 402.76V253.388L383.695 236.467L419.404 427.57" stroke="#DFDFDF" stroke-width="5" stroke-linecap="round" stroke-linejoin="round"/>
<path d="M444.815 534.213C452.917 534.213 459.485 527.635 459.485 519.521C459.485 511.407 452.917 504.829 444.815 504.829C436.713 504.829 430.145 511.407 430.145 519.521C430.145 527.635 436.713 534.213 444.815 534.213Z" stroke="#DFDFDF" stroke-width="5" stroke-linecap="round" stroke-linejoin="round"/>
<path d="M731.346 534.213C739.448 534.213 746.017 527.635 746.017 519.521C746.017 511.407 739.448 504.829 731.346 504.829C723.244 504.829 716.676 511.407 716.676 519.521C716.676 527.635 723.244 534.213 731.346 534.213Z" stroke="#DFDFDF" stroke-width="5" stroke-linecap="round" stroke-linejoin="round"/>
<path d="M395.367 298.908H682.515" stroke="#DFDFDF" stroke-width="5" stroke-linecap="round" stroke-linejoin="round"/>
<path d="M403.301 341.376H682.513" stroke="#DFDFDF" stroke-width="5" stroke-linecap="round" stroke-linejoin="round"/>
<path d="M332.523 226.786L356.803 216.872" stroke="#DFDFDF" stroke-width="5" stroke-linecap="round" stroke-linejoin="round"/>
<path d="M427.601 341.376C424.456 332.469 391.09 236.865 391.09 236.865" stroke="#DFDFDF" stroke-width="5" stroke-linecap="round" stroke-linejoin="round"/>
</svg>
