<svg width="578" height="578" viewBox="0 0 578 578" fill="none" xmlns="http://www.w3.org/2000/svg">
<path d="M528.692 461.095H514.574V472.101H528.692V461.095Z" fill="#DE8E68"/>
<path d="M487.051 178.361C485.461 177.167 473.376 159.889 470.323 147.616C467.269 135.344 467.004 183.539 467.004 183.539L474.571 190.176L487.051 178.361Z" fill="#FCC486"/>
<path d="M485.452 355.706L469.041 384.423L464.938 295.189L491.092 296.047L485.452 355.706Z" fill="#019B83"/>
<path d="M502.446 173.776C544.038 182.552 531.1 278.403 523.037 286.255C514.974 294.106 455.555 295.565 449.824 289C444.092 282.435 450.247 162.75 502.446 173.776Z" fill="#FED385"/>
<path d="M508.29 184.43C507.808 187.619 488.984 185.35 489.803 180.967L494.591 155.439L513.077 158.907C513.077 158.907 508.776 181.246 508.29 184.43Z" fill="#D37C59"/>
<path d="M519.199 146.278C521.853 132.115 515.743 119.085 505.554 117.176C495.364 115.268 484.953 125.202 482.3 139.366C479.647 153.53 485.756 166.559 495.946 168.468C506.135 170.377 516.546 160.442 519.199 146.278Z" fill="#DE8E68"/>
<path d="M486.725 100.427C491.662 100.427 493.738 103.799 506.474 103.799C512.668 103.799 525.259 105.119 525.259 121.139C525.259 131.9 531.52 132.699 531.52 139.442C531.52 142.814 528.539 151.002 520.924 151.002C517.552 151.002 514.18 145.222 514.18 143.296C514.18 141.369 516.107 139.924 516.107 138.479C516.145 131.519 493.599 127.651 492.096 121.39C490.463 122.888 486.706 127.507 485.304 130.498C483.378 129.511 483.599 127.907 481.451 126.437C479.597 125.18 473.817 121.963 473.817 115.557C473.792 112.373 477.111 100.427 486.725 100.427Z" fill="#FD8369"/>
<path d="M516.805 153.652C520.138 153.652 522.84 150.95 522.84 147.616C522.84 144.283 520.138 141.581 516.805 141.581C513.472 141.581 510.77 144.283 510.77 147.616C510.77 150.95 513.472 153.652 516.805 153.652Z" fill="#DE8E68"/>
<path d="M521.752 287.213L531.173 462.072H513.934L468.051 297.863V287.854L521.752 287.213Z" fill="#3EA590"/>
<path d="M470.847 100.62H35.1602V422.128H470.847V100.62Z" fill="#DFDFDF"/>
<path d="M470.847 138.354H35.1602V459.862H470.847V138.354Z" fill="#F3F3F3"/>
<path d="M492.915 224.009C488.912 226.075 483.103 229.042 479.1 236.917C474.067 236.012 449.02 231.494 431.078 231.754C429.402 235.366 426.56 241.05 427.706 241.826C428.853 242.601 465.662 257.961 491.479 255.635C494.851 255.876 508.415 243.112 508.853 242.081C509.291 241.05 492.915 224.009 492.915 224.009Z" fill="#DE8E68"/>
<path d="M433.493 238.217C434.697 234.06 430.647 229.233 424.446 227.436C418.245 225.639 412.241 227.552 411.037 231.709C409.832 235.867 413.882 240.693 420.084 242.49C426.285 244.287 432.288 242.374 433.493 238.217Z" fill="#DE8E68"/>
<path d="M433.346 93.7854C440.201 93.7854 445.759 89.0304 445.759 83.1647C445.759 77.299 440.201 72.5439 433.346 72.5439C426.491 72.5439 420.934 77.299 420.934 83.1647C420.934 89.0304 426.491 93.7854 433.346 93.7854Z" fill="#DE8E68"/>
<path d="M302.444 200.566H142.656V459.862H361.188V259.31L302.444 200.566Z" fill="#DFDFDF"/>
<path d="M201.997 325.009C216.006 325.009 227.362 313.653 227.362 299.645C227.362 285.636 216.006 274.28 201.997 274.28C187.989 274.28 176.633 285.636 176.633 299.645C176.633 313.653 187.989 325.009 201.997 325.009Z" fill="white"/>
<path d="M327.211 319.191H240.992V326.007H327.211V319.191Z" fill="white"/>
<path d="M327.216 349.671H176.633V356.486H327.216V349.671Z" fill="white"/>
<path d="M327.216 380.146H176.633V386.961H327.216V380.146Z" fill="white"/>
<path d="M459.03 78.8682H326.73C320.202 78.8682 314.91 84.1602 314.91 90.6883V139.182C314.91 145.711 320.202 151.003 326.73 151.003H459.03C465.558 151.003 470.85 145.711 470.85 139.182V90.6883C470.85 84.1602 465.558 78.8682 459.03 78.8682Z" fill="#F3F3F3"/>
<path d="M314.909 90.6882C314.909 96.1407 298.127 138.373 208.773 138.373C208.773 147.477 319.605 142.886 319.605 142.886L321.243 91.5697L314.909 90.6882Z" fill="#F3F3F3"/>
<path d="M530.796 200.224C541.875 212.709 514.66 248.603 509.415 247.119C503.235 245.371 484.431 227.771 484.282 221.677C484.132 215.584 517.131 184.835 530.796 200.224Z" fill="#FED892"/>
<path d="M514.574 469.23V478.203L536.702 506.304L543.32 503.086L529.766 469.23H514.574Z" fill="black"/>
</svg>
