<svg width="22" height="22" viewBox="0 0 22 22" fill="none" xmlns="http://www.w3.org/2000/svg">
<path d="M0 22L1.57845 16.1362C0.305469 13.8519 -0.0989689 11.1864 0.439349 8.62866C0.977667 6.07097 2.42263 3.79269 4.50909 2.2119C6.59555 0.631107 9.18355 -0.146167 11.7982 0.0227092C14.4128 0.191585 16.8787 1.29528 18.7434 3.13127C20.608 4.96726 21.7463 7.41239 21.9495 10.018C22.1526 12.6236 21.4069 15.2148 19.8492 17.3162C18.2915 19.4177 16.0263 20.8883 13.4693 21.4583C10.9122 22.0283 8.23488 21.6594 5.92851 20.4194L0 22ZM6.21437 18.2251L6.58102 18.442C8.25157 19.4297 10.2027 19.8384 12.1305 19.6045C14.0582 19.3705 15.8542 18.5071 17.2387 17.1487C18.6231 15.7904 19.5181 14.0133 19.7843 12.0946C20.0505 10.1759 19.6728 8.22321 18.7102 6.5409C17.7477 4.85859 16.2542 3.54114 14.4626 2.79385C12.671 2.04657 10.6818 1.91143 8.80516 2.40949C6.9285 2.90755 5.26973 4.01084 4.08734 5.54742C2.90495 7.084 2.26536 8.96756 2.26824 10.9046C2.26667 12.5107 2.71199 14.0857 3.55462 15.4543L3.78455 15.8324L2.90211 19.1053L6.21437 18.2251Z" fill="#00D95F"/>
<path fill-rule="evenodd" clip-rule="evenodd" d="M15.1124 12.4564C14.8975 12.2835 14.6458 12.1618 14.3766 12.1006C14.1074 12.0393 13.8277 12.0402 13.5589 12.1031C13.1549 12.2705 12.8939 12.9027 12.6329 13.2188C12.5779 13.2946 12.497 13.3478 12.4055 13.3683C12.3139 13.3889 12.218 13.3754 12.1358 13.3304C10.657 12.7527 9.41739 11.6932 8.61843 10.3241C8.55029 10.2387 8.51804 10.1302 8.52847 10.0215C8.5389 9.91284 8.5912 9.81243 8.67436 9.74145C8.96547 9.454 9.1792 9.09797 9.2958 8.70629C9.32169 8.27426 9.22246 7.84391 9.00994 7.46658C8.84564 6.93756 8.53297 6.46651 8.10886 6.10909C7.89011 6.01096 7.64757 5.97805 7.41049 6.01435C7.17342 6.05065 6.95194 6.15459 6.77277 6.31364C6.46172 6.58132 6.21483 6.91519 6.05028 7.29065C5.88573 7.66612 5.80771 8.07362 5.82197 8.48314C5.82293 8.71311 5.85215 8.9421 5.90897 9.16498C6.05327 9.70048 6.27519 10.2121 6.56769 10.6836C6.77873 11.0448 7.00899 11.3945 7.25749 11.7312C8.06507 12.837 9.08023 13.7759 10.2466 14.4957C10.8319 14.8616 11.4574 15.159 12.1109 15.3821C12.7897 15.6891 13.5392 15.8069 14.2797 15.7231C14.7017 15.6594 15.1014 15.4932 15.4439 15.2392C15.7863 14.9852 16.0609 14.6511 16.2435 14.2664C16.3507 14.034 16.3833 13.7742 16.3367 13.5226C16.2248 13.0081 15.535 12.7044 15.1124 12.4564Z" fill="#00D95F"/>
</svg>
