<svg width="22" height="22" viewBox="0 0 22 22" fill="none" xmlns="http://www.w3.org/2000/svg">
<path d="M7.89471 20.5044V17.1919C7.89471 16.3463 8.58522 15.6608 9.437 15.6608H12.5507C12.9597 15.6608 13.352 15.8221 13.6413 16.1092C13.9305 16.3964 14.093 16.7858 14.093 17.1919V20.5044C14.0904 20.856 14.2293 21.194 14.4788 21.4435C14.7283 21.693 15.0678 21.8333 15.4219 21.8333H17.5462C18.5383 21.8358 19.4907 21.4464 20.1931 20.7508C20.8956 20.0553 21.2904 19.1109 21.2904 18.1259V8.68906C21.2904 7.89346 20.9351 7.13879 20.3204 6.62835L13.0939 0.898817C11.8368 -0.105766 10.0357 -0.0733301 8.8162 0.975853L1.75463 6.62835C1.11083 7.12374 0.726046 7.88065 0.707031 8.68906V18.1163C0.707031 20.1691 2.38336 21.8333 4.45122 21.8333H6.52701C7.26253 21.8333 7.86028 21.2442 7.86561 20.514L7.89471 20.5044Z" fill="#019B83"/>
</svg>
