<svg width="504" height="624" viewBox="0 0 504 624" fill="none" xmlns="http://www.w3.org/2000/svg">
<path d="M436.876 147.115C479.203 206.039 502.09 264.783 503.857 320.464C505.838 376.152 486.749 428.949 461.544 483.37C436.332 537.612 404.819 593.472 362.506 600.859C320.193 608.067 267.073 566.981 209.097 543.739C150.913 520.669 87.9159 515.623 48.6355 480.85C9.40527 445.891 -5.90062 381.199 2.02411 318.124C10.1276 255.056 41.8194 193.577 90.4335 135.942C139.234 78.0993 205.313 24.0361 269.055 26.5556C332.975 29.0823 394.735 88.1847 436.876 147.115Z" fill="#F2F2F2"/>
<path d="M328.74 393.603C341.707 429.872 347.029 595.841 347.029 624H279.926L251.996 561.011L300.474 384.649L328.74 393.603Z" fill="#00927B"/>
<path d="M304.988 398.22C301.326 422.471 268.733 604.76 261.459 624H164.503C160.383 610.257 144.82 448.575 164.503 389.036C184.186 329.497 304.988 398.22 304.988 398.22Z" fill="#019B83"/>
<path d="M321.804 301.847C327.976 300.63 411.972 262.285 430.998 245.965C450.023 229.645 427.293 217.04 420.126 221.242C412.96 225.444 338.354 257.59 323.034 262.285C307.714 266.981 321.804 301.847 321.804 301.847Z" fill="#DE8E68"/>
<path d="M450.42 127.951L389.332 132.719L398.538 250.837L459.626 246.069L450.42 127.951Z" fill="#DEDEDE"/>
<path d="M363.129 155.125L395.078 220.14" stroke="black" stroke-width="8" stroke-linecap="round" stroke-linejoin="round"/>
<path d="M237.288 128.237C254.683 126.334 266.548 104.313 263.788 79.0524C261.028 53.792 244.689 34.8574 227.294 36.7609C209.899 38.6644 198.034 60.6851 200.794 85.9456C203.554 111.206 219.893 130.141 237.288 128.237Z" fill="#DE8E68"/>
<path d="M226.012 135.527C331.866 135.527 336.801 393.567 332.152 398.22C327.503 402.872 219.861 424.704 161.212 400.367C146.9 338.094 156.635 135.527 226.012 135.527Z" fill="#FED385"/>
<path d="M393.512 189.082C393.512 183.041 387.075 170.471 377.627 172.705C371.126 174.236 362.185 187.285 358.316 192.825C345.22 201.851 262.354 270.445 255.981 277.088C255.717 271.547 250.402 260.46 244.023 250.203L190.059 285.126C195.645 300.651 230.462 341.673 244.023 341.673C279.619 341.673 351.593 244.877 369.831 218.916C378.357 212.982 393.52 201.136 393.512 189.082Z" fill="#DE8E68"/>
<path d="M177.922 60.1259C177.922 46.6907 188.815 38.8313 192.355 35.1594C199.507 27.7152 203.799 7.86648 218.912 7.86648C223.203 7.86648 229.869 10.3646 234.06 10.3646C239.303 10.3431 249.738 0 260.259 0C277.882 0 281.802 16.234 281.802 21.223C281.802 39.4899 259.072 53.2759 256.053 54.9222C254.773 52.8249 248.901 44.9799 246.949 43.7917C244.61 48.6734 228.825 56.7975 216.895 64.0771C210.214 68.1571 206.009 99.8234 206.109 102.321C194.966 102.357 177.922 85.4361 177.922 60.1259Z" fill="#FD8369"/>
<path d="M204.355 99.2794C209.312 99.2794 213.331 95.2575 213.331 90.2963C213.331 85.335 209.312 81.3132 204.355 81.3132C199.398 81.3132 195.379 85.335 195.379 90.2963C195.379 95.2575 199.398 99.2794 204.355 99.2794Z" fill="#DE8E68"/>
<path d="M241.033 152.641C241.749 157.129 213.633 155.991 213.304 151.21L210.207 106.23L235.669 103.445C235.669 103.445 240.361 148.167 241.033 152.641Z" fill="#DE8E68"/>
<path d="M169.995 174.179C138.389 191.408 166.648 280.888 186.61 290.05C209.161 290.05 254.671 257.375 254.671 246.345C254.671 235.314 210.992 151.847 169.995 174.179Z" fill="#FED892"/>
<path d="M434.051 180.793C434.051 195.646 451.695 203.483 454.263 203.483C459.642 203.483 459.642 187.228 459.642 183.019C459.642 173.428 450.294 166.406 443.191 166.406C436.089 166.406 434.051 172.375 434.051 180.793Z" fill="#DE8E68"/>
</svg>
