<svg width="611" height="624" viewBox="0 0 611 624" fill="none" xmlns="http://www.w3.org/2000/svg">
<path d="M445.93 72.5006C480.402 103.472 502.963 146.686 539.182 208.797C575.569 270.909 625.746 351.912 606.717 400.204C587.688 448.496 499.117 464.063 415.487 495.732C331.856 527.4 253.121 574.988 180.69 565.711C108.26 556.434 42.1337 490.308 25.5026 417.172C8.70296 343.861 41.245 263.555 64.6864 190.42C87.9592 117.292 102.131 51.3038 142.893 21.4276C183.655 -8.44859 251.022 -2.02904 308.063 10.3887C365.095 22.9597 411.457 41.5366 445.93 72.5006Z" fill="#F2F2F2"/>
<path d="M131.057 593.503H107.079V621.901H71.925V593.503H0V582.779L83.1018 469.203H107.079V563.244H131.057V593.503ZM71.925 563.244V527.86L46.7907 563.244H71.925Z" fill="#D3D3D3"/>
<path d="M151.074 545.786C151.074 501.791 163.875 467.104 208.528 467.104C252.96 467.104 265.324 501.791 265.324 545.786C265.324 589.55 252.99 624 208.528 624C163.875 624 151.074 589.55 151.074 545.786ZM230.216 545.786C230.216 519.249 225.091 498.765 208.567 498.765C191.805 498.765 185.991 519.249 185.991 545.786C185.991 572.084 191.805 592.109 208.567 592.109C225.091 592.14 230.216 572.084 230.216 545.786Z" fill="#D3D3D3"/>
<path d="M409.918 593.503H385.94V621.901H350.794V593.503H278.846V582.779L361.963 469.203H385.94V563.244H409.918V593.503ZM350.794 563.244V527.86L325.652 563.244H350.794Z" fill="#D3D3D3"/>
<path d="M411.172 594.208H424.203V583.177H411.172V594.208Z" fill="#DE8E68"/>
<path d="M425.43 592.484V603.516H394.428V599.501L410.553 592.484H425.43Z" fill="black"/>
<path d="M208.628 458.884H221.658V447.853H208.628V458.884Z" fill="#DE8E68"/>
<path d="M222.883 457.161V468.192H191.889V464.185L208.014 457.161H222.883Z" fill="black"/>
<path d="M410.721 309.626C411.379 315.892 425.222 586.088 425.222 586.088H410.721L340.205 331.681L410.721 309.626Z" fill="#00927B"/>
<path d="M418.169 279.857C418.169 316.551 404.678 349.568 377.368 349.568C339.878 349.568 290.245 325.667 276.586 312.177C273.177 322.258 224.824 449.239 224.824 449.239H204.799C204.799 449.239 217.63 301.391 241.684 263.471C249.598 252.93 314.176 255.565 346.803 263.471C379.429 271.376 418.169 279.857 418.169 279.857Z" fill="#019B83"/>
<path d="M321.33 66.0582C321.557 64.9247 322.193 63.9143 323.117 63.2194C324.041 62.5244 325.188 62.1933 326.34 62.2892C329.274 62.496 334.07 70.2485 334.07 76.5225C334.07 82.7965 332.3 85.156 332.836 89.714C333.372 94.272 344.978 156.077 344.978 159.846C347.905 160.053 358.377 158.59 358.377 158.59L351.045 188.114H329.703L315.914 69.199L321.33 66.0582Z" fill="#D37C59"/>
<path d="M341.799 76.5836L337.302 94.7545C337.302 94.7545 292.94 89.5989 288.099 88.4039C283.257 87.2088 290.55 57.1641 295.522 58.3898C300.493 59.6155 341.799 76.5836 341.799 76.5836Z" fill="black"/>
<path d="M382.447 130.338C439.196 130.338 425.2 276.953 418.574 282.438C411.948 287.923 341.394 269.415 335.533 261.249C329.673 253.083 340.827 130.338 382.447 130.338Z" fill="#FED385"/>
<path d="M362.192 167.561C359.074 168.618 340.788 175.75 340.788 175.75C340.482 172.073 326.425 99.144 325.559 94.6779C327.333 90.2202 328.211 85.4563 328.141 80.6591C328.141 68.6856 323.276 58.9644 317.278 58.9644C311.28 58.9644 306.423 68.6856 306.423 80.6591C306.338 85.6706 307.304 90.6444 309.258 95.2601C308.583 104.376 302.532 190.933 314.88 203.274C327.903 216.297 359.564 204.553 378.808 195.805C382.929 194.38 377.314 163.47 362.192 167.561Z" fill="#DE8E68"/>
<path d="M348.613 84.0899L337.137 81.0427L335.008 89.0613L346.484 92.1084L348.613 84.0899Z" fill="black"/>
<path d="M418.611 157.272C427.26 174.064 393.009 204.316 383.533 202.064C374.057 199.812 358.774 165.998 361.632 159.931C364.489 153.864 410.2 140.932 418.611 157.272Z" fill="#FED892"/>
<path d="M385.924 144.548C385.924 147.39 368.588 148.11 368.588 144.548V111.822H385.924V144.548Z" fill="#D37C59"/>
<path d="M370.995 130.821C383.492 130.821 393.624 114.437 393.624 94.2261C393.624 74.0155 383.492 57.6316 370.995 57.6316C358.497 57.6316 348.365 74.0155 348.365 94.2261C348.365 114.437 358.497 130.821 370.995 130.821Z" fill="#DC8E6C"/>
<path d="M354.041 69.9803C353.868 72.6086 354.398 75.2354 355.576 77.5912C356.754 79.9471 358.538 81.9472 360.744 83.3863C367.493 87.9826 372.303 85.9525 377.252 90.2808C379.864 92.893 386.261 97.9413 386.322 105.74C386.322 111.508 388.214 114.419 389.877 114.419C391.539 114.419 395.921 113.27 398.74 113.27C426.425 113.27 458.937 141.852 521.309 141.852C553.889 141.852 605.016 133.632 605.016 85.784C605.016 59.9449 595.716 28.7205 546.558 28.7205C515.341 28.7205 493.471 44.0416 467.823 44.0416C434.883 44.0416 422.181 32.1141 399.422 32.1141C383.212 32.1141 346.732 41.5059 346.732 66.1117C346.732 75.4576 349.659 78.1694 350.563 78.652C350.854 77.6255 352.639 72.3244 354.041 69.9803Z" fill="black"/>
<path d="M383.993 108.666C387.183 108.666 389.769 106.08 389.769 102.89C389.769 99.7 387.183 97.114 383.993 97.114C380.803 97.114 378.217 99.7 378.217 102.89C378.217 106.08 380.803 108.666 383.993 108.666Z" fill="#DC8E6C"/>
</svg>
