<svg width="24" height="25" viewBox="0 0 24 25" fill="none" xmlns="http://www.w3.org/2000/svg">
<g clip-path="url(#clip0_776_4857)">
<path d="M6.5 6.5C6.5 3.46114 8.96114 1 12 1C15.0389 1 17.5 3.46114 17.5 6.5C17.5 9.53886 15.0389 12 12 12C8.96114 12 6.5 9.53886 6.5 6.5ZM0.5 20C0.5 19.1861 0.903724 18.4363 1.65091 17.7466C2.40149 17.0539 3.46489 16.4563 4.68406 15.9679C7.12321 14.9908 10.06 14.5 12 14.5C13.94 14.5 16.8768 14.9908 19.3159 15.9679C20.5351 16.4563 21.5985 17.0539 22.3491 17.7466C23.0963 18.4363 23.5 19.1861 23.5 20V24H0.5V20Z" stroke="#2B2A28"/>
</g>
<defs>
<clipPath id="clip0_776_4857">
<rect width="24" height="24" fill="white" transform="translate(0 0.5)"/>
</clipPath>
</defs>
</svg>
