<svg width="30" height="31" viewBox="0 0 30 31" fill="none" xmlns="http://www.w3.org/2000/svg">
<circle cx="15" cy="15.5" r="15" fill="#019B83"/>
<g clip-path="url(#clip0_351_907)">
<path d="M13.797 16.7028C12.4608 15.3665 12.159 14.0302 12.091 13.4949C12.072 13.3468 12.1229 13.1984 12.2288 13.0932L13.3102 12.0123C13.4693 11.8533 13.4975 11.6056 13.3783 11.4149L11.6565 8.74138C11.5246 8.53024 11.2537 8.45403 11.0311 8.56542L8.26705 9.86718C8.087 9.95584 7.98109 10.1471 8.00153 10.3468C8.14636 11.7227 8.74619 15.1049 12.07 18.4289C15.3938 21.7529 18.7755 22.3525 20.1521 22.4973C20.3517 22.5178 20.543 22.4119 20.6317 22.2318L21.9335 19.4678C22.0444 19.2456 21.9687 18.9755 21.7585 18.8434L19.0849 17.1221C18.8944 17.0027 18.6466 17.0307 18.4875 17.1897L17.4066 18.271C17.3015 18.3769 17.153 18.4279 17.005 18.4089C16.4696 18.3408 15.1333 18.0391 13.797 16.7028Z" fill="white"/>
<path d="M19.1028 15.9828C18.8362 15.9828 18.62 15.7667 18.62 15.5C18.6178 13.5013 16.9981 11.8816 14.9994 11.8793C14.7327 11.8793 14.5166 11.6632 14.5166 11.3966C14.5166 11.13 14.7327 10.9138 14.9994 10.9138C17.5311 10.9166 19.5828 12.9683 19.5856 15.5C19.5856 15.7667 19.3694 15.9828 19.1028 15.9828Z" fill="white"/>
<path d="M21.5166 15.9828C21.25 15.9828 21.0339 15.7666 21.0339 15.5C21.0301 12.1688 18.3306 9.46924 14.9994 9.46552C14.7327 9.46552 14.5166 9.24938 14.5166 8.98276C14.5166 8.71614 14.7327 8.5 14.9994 8.5C18.8636 8.50426 21.9951 11.6358 21.9994 15.5C21.9994 15.628 21.9485 15.7508 21.858 15.8414C21.7675 15.9319 21.6447 15.9828 21.5166 15.9828Z" fill="white"/>
</g>
<defs>
<clipPath id="clip0_351_907">
<rect width="14" height="14" fill="white" transform="translate(8 8.5)"/>
</clipPath>
</defs>
</svg>
