<svg width="17" height="16" viewBox="0 0 17 16" fill="none" xmlns="http://www.w3.org/2000/svg">
<path d="M13.1864 9.83675C12.9814 10.0355 12.8872 10.3228 12.9339 10.6047L13.6377 14.4997C13.6971 14.8298 13.5577 15.1639 13.2814 15.3547C13.0107 15.5526 12.6505 15.5763 12.3552 15.418L8.84889 13.5892C8.72697 13.5243 8.59159 13.4895 8.45305 13.4855H8.23851C8.16409 13.4966 8.09126 13.5204 8.02476 13.5568L4.51768 15.3942C4.3443 15.4813 4.14797 15.5122 3.95559 15.4813C3.48693 15.3927 3.17422 14.9462 3.25101 14.4751L3.95559 10.5801C4.0023 10.2959 3.90809 10.007 3.70305 9.80508L0.844344 7.03425C0.605261 6.80229 0.522136 6.45396 0.631386 6.13967C0.737469 5.82616 1.00822 5.59737 1.33518 5.54592L5.26976 4.97512C5.56901 4.94425 5.83184 4.76217 5.96643 4.493L7.70018 0.938415C7.74134 0.859248 7.79439 0.786415 7.85851 0.724665L7.92976 0.669248C7.96697 0.628081 8.00972 0.59404 8.05722 0.566331L8.14351 0.534665L8.27809 0.479248H8.61139C8.90905 0.510123 9.17109 0.688248 9.30805 0.954248L11.0648 4.493C11.1914 4.75187 11.4376 4.93158 11.7218 4.97512L15.6564 5.54592C15.9889 5.59341 16.2668 5.823 16.3768 6.13967C16.4806 6.45712 16.3911 6.80546 16.1473 7.03425L13.1864 9.83675Z" fill="#F96D15"/>
</svg>
