<svg width="25" height="25" viewBox="0 0 25 25" fill="none" xmlns="http://www.w3.org/2000/svg">
<path d="M12.1127 24.0419C18.7517 24.0419 24.1337 18.6599 24.1337 12.021C24.1337 5.38197 18.7517 0 12.1127 0C5.47377 0 0.0917969 5.38197 0.0917969 12.021C0.0917969 18.6599 5.47377 24.0419 12.1127 24.0419Z" fill="#34AADF"/>
<path d="M5.24534 11.7577C5.24534 11.7577 11.1999 9.22441 13.2651 8.33238C14.0567 7.9756 16.7414 6.8338 16.7414 6.8338C16.7414 6.8338 17.9805 6.33431 17.8773 7.54741C17.8428 8.04696 17.5675 9.79526 17.2922 11.6863C16.8791 14.3624 16.4316 17.2881 16.4316 17.2881C16.4316 17.2881 16.3628 18.1088 15.7777 18.2515C15.1926 18.3942 14.2288 17.752 14.0567 17.6092C13.919 17.5022 11.4753 15.8966 10.5804 15.1116C10.3394 14.8976 10.0641 14.4694 10.6147 13.9699C11.8539 12.7924 13.3339 11.3295 14.2288 10.4019C14.6418 9.97368 15.0549 8.97464 13.3339 10.1877C10.8901 11.9361 8.48077 13.5774 8.48077 13.5774C8.48077 13.5774 7.93005 13.9342 6.89748 13.613C5.86486 13.292 4.66018 12.8638 4.66018 12.8638C4.66018 12.8638 3.83416 12.3286 5.24534 11.7577Z" fill="white"/>
</svg>
